<svg width="130" height="130" viewBox="0 0 130 130" fill="none" xmlns="http://www.w3.org/2000/svg">
<path d="M4.0625 107.656H125.938V113.75C125.937 116.982 124.653 120.082 122.368 122.368C120.082 124.653 116.982 125.938 113.75 125.938H16.25C13.0177 125.937 9.91774 124.653 7.63214 122.368C5.34654 120.082 4.0625 116.982 4.0625 113.75V107.656Z" fill="#36393F"/>
<path d="M107.601 107.656H22.3986C19.0028 107.656 16.25 110.409 16.25 113.805V119.789C16.25 123.185 19.0028 125.938 22.3986 125.938H107.601C110.997 125.938 113.75 123.185 113.75 119.789V113.805C113.75 110.409 110.997 107.656 107.601 107.656Z" fill="#3F4349"/>
<path d="M8.125 107.656V36.5625C8.125 35.4851 8.55301 34.4517 9.31488 33.6899C10.0767 32.928 11.1101 32.5 12.1875 32.5H117.812C118.89 32.5 119.923 32.928 120.685 33.6899C121.447 34.4517 121.875 35.4851 121.875 36.5625V107.656H8.125Z" fill="#202326"/>
<path d="M121.875 99.5089V36.5625C121.875 35.4851 121.447 34.4517 120.685 33.6899C119.923 32.928 118.89 32.5 117.812 32.5H12.1875C12.1875 32.5 28.2202 98.5603 121.875 99.5089Z" fill="#2B2E33"/>
<path d="M16.25 107.656V40.625H113.75V107.656H16.25Z" fill="#EAEBEF"/>
<path d="M31.6509 40.625H113.75V93.47C113.75 94.266 113.593 95.0542 113.289 95.7895C112.984 96.5249 112.538 97.1931 111.975 97.756C111.412 98.3188 110.744 98.7653 110.008 99.0699C109.273 99.3745 108.485 99.5312 107.689 99.5312H40.5702C36.2749 99.5312 32.1556 97.825 29.1185 94.7878C26.0813 91.7506 24.375 87.6313 24.375 83.3361V47.9009C24.375 45.9712 25.1416 44.1206 26.5061 42.7561C27.8706 41.3916 29.7212 40.625 31.6509 40.625Z" fill="#F6F8FF"/>
<path d="M87.3438 83.2812H24.375C23.8363 83.2812 23.3196 83.0672 22.9387 82.6863C22.5578 82.3054 22.3438 81.7887 22.3438 81.25V60.9375C22.3438 60.3988 22.5578 59.8821 22.9387 59.5012C23.3196 59.1203 23.8363 58.9062 24.375 58.9062H105.625C106.164 58.9062 106.68 59.1203 107.061 59.5012C107.442 59.8821 107.656 60.3988 107.656 60.9375V81.25C107.656 81.7887 107.442 82.3054 107.061 82.6863C106.68 83.0672 106.164 83.2812 105.625 83.2812H87.3438Z" fill="#EAEBEF"/>
<path d="M87.3438 79.2188H24.375C23.8363 79.2188 23.3196 79.0047 22.9387 78.6238C22.5578 78.2429 22.3438 77.7262 22.3438 77.1875V56.875C22.3438 56.3363 22.5578 55.8196 22.9387 55.4387C23.3196 55.0578 23.8363 54.8438 24.375 54.8438H105.625C106.164 54.8438 106.68 55.0578 107.061 55.4387C107.442 55.8196 107.656 56.3363 107.656 56.875V77.1875C107.656 77.7262 107.442 78.2429 107.061 78.6238C106.68 79.0047 106.164 79.2188 105.625 79.2188H87.3438Z" fill="#1CB15F"/>
<path d="M94.4755 54.8438H35.5245C30.4886 54.8438 26.4062 58.9261 26.4062 63.962V68.0692C26.4062 73.1051 30.4886 77.1875 35.5245 77.1875H94.4755C99.5114 77.1875 103.594 73.1051 103.594 68.0692V63.962C103.594 58.9261 99.5114 54.8438 94.4755 54.8438Z" fill="#27D674"/>
<path d="M46.7188 107.656H83.2812V115.781H46.7188V107.656Z" fill="#2B2E33"/>
<path d="M73.125 87.3438H56.875C55.7532 87.3438 54.8438 88.2532 54.8438 89.375V93.4375C54.8438 94.5593 55.7532 95.4688 56.875 95.4688H73.125C74.2468 95.4688 75.1562 94.5593 75.1562 93.4375V89.375C75.1562 88.2532 74.2468 87.3438 73.125 87.3438Z" fill="#1CB15F"/>
<path d="M32.5 58.9063H28.4375C27.8988 58.9063 27.3821 59.1203 27.0012 59.5012C26.6203 59.8821 26.4062 60.3988 26.4062 60.9375V73.125C26.4062 73.6637 26.6203 74.1804 27.0012 74.5613C27.3821 74.9423 27.8988 75.1563 28.4375 75.1563H32.5C33.8468 75.1563 35.1384 74.6212 36.0908 73.6689C37.0431 72.7166 37.5781 71.4249 37.5781 70.0781C37.5748 68.9756 37.2086 67.9049 36.5361 67.0313C37.2086 66.1576 37.5748 65.0869 37.5781 63.9844C37.5781 62.6376 37.0431 61.3459 36.0908 60.3936C35.1384 59.4413 33.8468 58.9063 32.5 58.9063ZM33.5156 63.9844C33.5156 64.2537 33.4086 64.5121 33.2182 64.7025C33.0277 64.893 32.7694 65 32.5 65H30.4688V62.9688H32.5C32.7694 62.9688 33.0277 63.0758 33.2182 63.2662C33.4086 63.4567 33.5156 63.715 33.5156 63.9844ZM32.5 71.0938H30.4688V69.0625H32.5C32.7694 69.0625 33.0277 69.1695 33.2182 69.36C33.4086 69.5504 33.5156 69.8088 33.5156 70.0781C33.5156 70.3475 33.4086 70.6058 33.2182 70.7963C33.0277 70.9868 32.7694 71.0938 32.5 71.0938ZM44.1797 58.9063C42.5635 58.9063 41.0136 59.5483 39.8708 60.6911C38.728 61.8339 38.0859 63.3838 38.0859 65V69.0625C38.0859 70.6787 38.728 72.2286 39.8708 73.3714C41.0136 74.5142 42.5635 75.1563 44.1797 75.1563C45.7959 75.1563 47.3458 74.5142 48.4886 73.3714C49.6314 72.2286 50.2734 70.6787 50.2734 69.0625V65C50.2734 63.3838 49.6314 61.8339 48.4886 60.6911C47.3458 59.5483 45.7959 58.9063 44.1797 58.9063ZM46.2109 69.0625C46.2109 69.6012 45.9969 70.1179 45.616 70.4988C45.2351 70.8798 44.7184 71.0938 44.1797 71.0938C43.641 71.0938 43.1243 70.8798 42.7434 70.4988C42.3624 70.1179 42.1484 69.6012 42.1484 69.0625V65C42.1484 64.4613 42.3624 63.9446 42.7434 63.5637C43.1243 63.1828 43.641 62.9688 44.1797 62.9688C44.7184 62.9688 45.2351 63.1828 45.616 63.5637C45.9969 63.9446 46.2109 64.4613 46.2109 65V69.0625ZM56.875 58.9063C55.2588 58.9063 53.7089 59.5483 52.5661 60.6911C51.4233 61.8339 50.7813 63.3838 50.7812 65V69.0625C50.7812 70.6787 51.4233 72.2286 52.5661 73.3714C53.7089 74.5142 55.2588 75.1563 56.875 75.1563C58.4912 75.1563 60.0411 74.5142 61.1839 73.3714C62.3267 72.2286 62.9688 70.6787 62.9688 69.0625V65C62.9687 63.3838 62.3267 61.8339 61.1839 60.6911C60.0411 59.5483 58.4912 58.9063 56.875 58.9063ZM58.9062 69.0625C58.9062 69.6012 58.6922 70.1179 58.3113 70.4988C57.9304 70.8798 57.4137 71.0938 56.875 71.0938C56.3363 71.0938 55.8196 70.8798 55.4387 70.4988C55.0578 70.1179 54.8438 69.6012 54.8438 69.0625V65C54.8438 64.4613 55.0578 63.9446 55.4387 63.5637C55.8196 63.1828 56.3363 62.9688 56.875 62.9688C57.4137 62.9688 57.9304 63.1828 58.3113 63.5637C58.6922 63.9446 58.9062 64.4613 58.9062 65V69.0625ZM73.6227 59.5014C73.2417 59.1206 72.7252 58.9067 72.1866 58.9067C71.6479 58.9067 71.1314 59.1206 70.7505 59.5014L68.1241 62.1278V60.9375C68.1241 60.3988 67.9101 59.8821 67.5291 59.5012C67.1482 59.1203 66.6315 58.9063 66.0928 58.9063C65.5541 58.9063 65.0374 59.1203 64.6565 59.5012C64.2756 59.8821 64.0616 60.3988 64.0616 60.9375V73.125C64.0616 73.6637 64.2756 74.1804 64.6565 74.5613C65.0374 74.9423 65.5541 75.1563 66.0928 75.1563C66.6315 75.1563 67.1482 74.9423 67.5291 74.5613C67.9101 74.1804 68.1241 73.6637 68.1241 73.125V71.9347L70.7505 74.5611C71.1336 74.9311 71.6467 75.1359 72.1793 75.1312C72.7118 75.1266 73.2213 74.913 73.5979 74.5364C73.9745 74.1598 74.1881 73.6503 74.1928 73.1177C74.1974 72.5851 73.9927 72.072 73.6227 71.6889L68.965 67.0313L73.6227 62.3736C74.0035 61.9927 74.2174 61.4761 74.2174 60.9375C74.2174 60.3989 74.0035 59.8823 73.6227 59.5014ZM77.1875 58.9063C76.6488 58.9063 76.1321 59.1203 75.7512 59.5012C75.3703 59.8821 75.1562 60.3988 75.1562 60.9375V73.125C75.1562 73.6637 75.3703 74.1804 75.7512 74.5613C76.1321 74.9423 76.6488 75.1563 77.1875 75.1563C77.7262 75.1563 78.2429 74.9423 78.6238 74.5613C79.0047 74.1804 79.2188 73.6637 79.2188 73.125V60.9375C79.2188 60.3988 79.0047 59.8821 78.6238 59.5012C78.2429 59.1203 77.7262 58.9063 77.1875 58.9063ZM101.562 67.0313H99.5312C99.0841 67.0313 98.6495 67.1788 98.2948 67.451C97.94 67.7232 97.685 68.1049 97.5693 68.5368C97.4536 68.9687 97.4836 69.4267 97.6547 69.8398C97.8258 70.2529 98.1284 70.598 98.5156 70.8216C98.2068 70.9999 97.8566 71.0937 97.5 71.0937C97.1435 71.0937 96.7932 70.9999 96.4844 70.8216C96.1756 70.6433 95.9192 70.3869 95.7409 70.0781C95.5626 69.7693 95.4688 69.4191 95.4688 69.0625V65C95.468 64.5522 95.6152 64.1167 95.8875 63.7613C96.1598 63.4058 96.542 63.1503 96.9745 63.0345C97.4071 62.9186 97.8658 62.949 98.2793 63.1207C98.6928 63.2925 99.038 63.5962 99.2611 63.9844C99.3899 64.2238 99.5656 64.4349 99.7775 64.6053C99.9895 64.7756 100.233 64.9016 100.495 64.9758C100.757 65.0501 101.03 65.0711 101.3 65.0376C101.57 65.004 101.83 64.9167 102.066 64.7807C102.301 64.6446 102.507 64.4627 102.671 64.2457C102.835 64.0287 102.953 63.7811 103.02 63.5174C103.086 63.2537 103.099 62.9794 103.057 62.7107C103.015 62.442 102.92 62.1844 102.777 61.9531C102.106 60.7915 101.071 59.8836 99.8318 59.3703C98.5925 58.857 97.2185 58.767 95.9228 59.1142C94.6271 59.4614 93.4822 60.2264 92.6656 61.2905C91.849 62.3547 91.4063 63.6586 91.4062 65V60.9375C91.4062 60.3988 91.1922 59.8821 90.8113 59.5012C90.4304 59.1203 89.9137 58.9063 89.375 58.9063C88.8363 58.9063 88.3196 59.1203 87.9387 59.5012C87.5578 59.8821 87.3438 60.3988 87.3438 60.9375V64.5206L85.1094 60.0295C84.9082 59.6139 84.5713 59.2793 84.1544 59.0807C83.7375 58.8822 83.2654 58.8317 82.8159 58.9374C82.3665 59.0432 81.9664 59.2989 81.6818 59.6625C81.3971 60.0261 81.2448 60.4758 81.25 60.9375V73.125C81.25 73.6637 81.464 74.1804 81.8449 74.5613C82.2259 74.9423 82.7425 75.1563 83.2812 75.1563C83.82 75.1563 84.3366 74.9423 84.7176 74.5613C85.0985 74.1804 85.3125 73.6637 85.3125 73.125V69.5419L87.5469 74.033C87.7481 74.4486 88.0849 74.7832 88.5018 74.9818C88.9187 75.1803 89.3908 75.2309 89.8403 75.1251C90.2898 75.0194 90.6898 74.7636 90.9745 74.4C91.2592 74.0365 91.4114 73.5867 91.4062 73.125V69.0625C91.4062 70.6787 92.0483 72.2286 93.1911 73.3714C94.3339 74.5142 95.8838 75.1563 97.5 75.1563C99.1162 75.1563 100.666 74.5142 101.809 73.3714C102.952 72.2286 103.594 70.6787 103.594 69.0625C103.594 68.5238 103.38 68.0071 102.999 67.6262C102.618 67.2453 102.101 67.0313 101.562 67.0313Z" fill="#EEF1FA"/>
<path d="M65 40.625C75.0965 40.625 83.2812 32.4402 83.2812 22.3438C83.2812 12.2473 75.0965 4.0625 65 4.0625C54.9035 4.0625 46.7188 12.2473 46.7188 22.3438C46.7188 32.4402 54.9035 40.625 65 40.625Z" fill="#1CB15F"/>
<path d="M65 30.4688C73.9746 30.4688 81.25 24.5575 81.25 17.2656C81.25 9.97374 73.9746 4.0625 65 4.0625C56.0254 4.0625 48.75 9.97374 48.75 17.2656C48.75 24.5575 56.0254 30.4688 65 30.4688Z" fill="#27D674"/>
<path d="M62.9688 32.5C62.4301 32.4999 61.9135 32.2858 61.5327 31.9048L55.4389 25.8111C55.0689 25.428 54.8642 24.9149 54.8688 24.3823C54.8734 23.8497 55.087 23.3403 55.4637 22.9637C55.8403 22.587 56.3497 22.3734 56.8823 22.3688C57.4149 22.3642 57.928 22.5689 58.3111 22.9389L62.853 27.4808L73.6186 14.9277C73.9752 14.5417 74.4675 14.3089 74.9921 14.2783C75.5166 14.2476 76.0327 14.4215 76.4318 14.7633C76.8309 15.1051 77.082 15.5882 77.1324 16.1113C77.1828 16.6343 77.0286 17.1566 76.702 17.5683L64.5145 31.787C64.3325 31.9991 64.1087 32.1714 63.857 32.293C63.6054 32.4147 63.3313 32.483 63.052 32.4939L62.9688 32.5Z" fill="#F6F8FF"/>
<path d="M65 14.2188C68.3655 14.2188 71.0938 12.3999 71.0938 10.1562C71.0938 7.91259 68.3655 6.09375 65 6.09375C61.6345 6.09375 58.9062 7.91259 58.9062 10.1562C58.9062 12.3999 61.6345 14.2188 65 14.2188Z" fill="#D4F7E3"/>
<path d="M70.5859 87.3438H59.4141C58.0118 87.3438 56.875 88.4805 56.875 89.8828V90.8984C56.875 92.3007 58.0118 93.4375 59.4141 93.4375H70.5859C71.9882 93.4375 73.125 92.3007 73.125 90.8984V89.8828C73.125 88.4805 71.9882 87.3438 70.5859 87.3438Z" fill="#27D674"/>
<path d="M50.7812 107.656H79.2188V109.858C79.2188 110.89 78.8087 111.88 78.0788 112.61C77.349 113.34 76.3591 113.75 75.3269 113.75H54.6731C53.6409 113.75 52.651 113.34 51.9212 112.61C51.1913 111.88 50.7812 110.89 50.7812 109.858V107.656Z" fill="#3F4349"/>
<path d="M125.938 105.625H123.906V36.5625C123.906 34.9463 123.264 33.3964 122.121 32.2536C120.979 31.1108 119.429 30.4688 117.812 30.4688H87.3438C86.805 30.4688 86.2884 30.6828 85.9074 31.0637C85.5265 31.4446 85.3125 31.9613 85.3125 32.5C85.3125 33.0387 85.5265 33.5554 85.9074 33.9363C86.2884 34.3172 86.805 34.5312 87.3438 34.5312H117.812C118.351 34.5312 118.868 34.7453 119.249 35.1262C119.63 35.5071 119.844 36.0238 119.844 36.5625V105.625H115.781V40.625C115.781 40.0863 115.567 39.5696 115.186 39.1887C114.805 38.8078 114.289 38.5938 113.75 38.5938H83.2812C82.7425 38.5938 82.2259 38.8078 81.8449 39.1887C81.464 39.5696 81.25 40.0863 81.25 40.625C81.25 41.1637 81.464 41.6804 81.8449 42.0613C82.2259 42.4422 82.7425 42.6562 83.2812 42.6562H111.719V105.625H18.2812V42.6562H46.7188C47.2575 42.6562 47.7741 42.4422 48.1551 42.0613C48.536 41.6804 48.75 41.1637 48.75 40.625C48.75 40.0863 48.536 39.5696 48.1551 39.1887C47.7741 38.8078 47.2575 38.5938 46.7188 38.5938H16.25C15.7113 38.5938 15.1946 38.8078 14.8137 39.1887C14.4328 39.5696 14.2188 40.0863 14.2188 40.625V105.625H10.1562V36.5625C10.1562 36.0238 10.3703 35.5071 10.7512 35.1262C11.1321 34.7453 11.6488 34.5312 12.1875 34.5312H42.6562C43.195 34.5312 43.7116 34.3172 44.0926 33.9363C44.4735 33.5554 44.6875 33.0387 44.6875 32.5C44.6875 31.9613 44.4735 31.4446 44.0926 31.0637C43.7116 30.6828 43.195 30.4688 42.6562 30.4688H12.1875C10.5713 30.4688 9.02137 31.1108 7.87857 32.2536C6.73577 33.3964 6.09375 34.9463 6.09375 36.5625V105.625H4.0625C3.52378 105.625 3.00712 105.839 2.62619 106.22C2.24526 106.601 2.03125 107.118 2.03125 107.656V113.75C2.03555 117.52 3.53497 121.134 6.20058 123.799C8.86618 126.465 12.4803 127.964 16.25 127.969H113.75C117.52 127.964 121.134 126.465 123.799 123.799C126.465 121.134 127.964 117.52 127.969 113.75V107.656C127.969 107.118 127.755 106.601 127.374 106.22C126.993 105.839 126.476 105.625 125.938 105.625ZM48.75 109.688H81.25V113.75H48.75V109.688ZM123.906 113.75C123.903 116.443 122.832 119.024 120.928 120.928C119.024 122.832 116.443 123.903 113.75 123.906H16.25C13.5574 123.903 10.976 122.832 9.07201 120.928C7.16804 119.024 6.09698 116.443 6.09375 113.75V109.688H44.6875V115.781C44.6875 116.32 44.9015 116.837 45.2824 117.218C45.6634 117.598 46.18 117.812 46.7188 117.812H83.2812C83.82 117.812 84.3366 117.598 84.7176 117.218C85.0985 116.837 85.3125 116.32 85.3125 115.781V109.688H123.906V113.75Z" fill="black"/>
<path d="M65 42.6563C69.0174 42.6563 72.9446 41.4649 76.285 39.233C79.6254 37.001 82.2289 33.8286 83.7663 30.117C85.3037 26.4054 85.706 22.3212 84.9222 18.381C84.1384 14.4407 82.2039 10.8214 79.3631 7.98065C76.5224 5.13989 72.903 3.20531 68.9628 2.42155C65.0225 1.63779 60.9384 2.04004 57.2267 3.57745C53.5151 5.11485 50.3427 7.71836 48.1108 11.0587C45.8788 14.3991 44.6875 18.3263 44.6875 22.3438C44.6934 27.7291 46.8354 32.8923 50.6434 36.7003C54.4515 40.5084 59.6146 42.6503 65 42.6563ZM65 6.09375C68.2139 6.09375 71.3557 7.0468 74.028 8.83237C76.7003 10.6179 78.7831 13.1558 80.013 16.1251C81.243 19.0944 81.5648 22.3618 80.9378 25.514C80.3108 28.6662 78.7631 31.5616 76.4905 33.8342C74.2179 36.1068 71.3224 37.6545 68.1702 38.2815C65.018 38.9085 61.7507 38.5867 58.7814 37.3568C55.8121 36.1269 53.2742 34.0441 51.4886 31.3718C49.703 28.6995 48.75 25.5577 48.75 22.3438C48.7548 18.0355 50.4684 13.905 53.5149 10.8586C56.5613 7.81219 60.6917 6.09859 65 6.09375Z" fill="black"/>
<path d="M61.5327 31.9048C61.9135 32.2858 62.4301 32.4999 62.9688 32.5H63.048C63.3273 32.4891 63.6013 32.4208 63.853 32.2991C64.1046 32.1775 64.3284 32.0052 64.5105 31.7931L76.698 17.5744C77.0245 17.1627 77.1788 16.6404 77.1284 16.1174C77.078 15.5943 76.8268 15.1112 76.4277 14.7694C76.0286 14.4276 75.5126 14.2537 74.988 14.2844C74.4634 14.315 73.9711 14.5478 73.6145 14.9338L62.8489 27.4869L58.307 22.945C57.9239 22.575 57.4108 22.3703 56.8782 22.3749C56.3457 22.3795 55.8362 22.5931 55.4596 22.9697C55.083 23.3464 54.8694 23.8558 54.8647 24.3884C54.8601 24.921 55.0648 25.4341 55.4348 25.8172L61.5327 31.9048ZM95.4688 81.25H105.625C106.702 81.25 107.736 80.822 108.498 80.0601C109.259 79.2983 109.688 78.2649 109.688 77.1875V56.875C109.688 55.7976 109.259 54.7643 108.498 54.0024C107.736 53.2405 106.702 52.8125 105.625 52.8125H24.375C23.2976 52.8125 22.2642 53.2405 21.5024 54.0024C20.7405 54.7643 20.3125 55.7976 20.3125 56.875V77.1875C20.3125 78.2649 20.7405 79.2983 21.5024 80.0601C22.2642 80.822 23.2976 81.25 24.375 81.25H87.3438C87.8825 81.25 88.3991 81.036 88.7801 80.6551C89.161 80.2741 89.375 79.7575 89.375 79.2188C89.375 78.68 89.161 78.1634 88.7801 77.7824C88.3991 77.4015 87.8825 77.1875 87.3438 77.1875H24.375V56.875H105.625V77.1875H95.4688C94.93 77.1875 94.4134 77.4015 94.0324 77.7824C93.6515 78.1634 93.4375 78.68 93.4375 79.2188C93.4375 79.7575 93.6515 80.2741 94.0324 80.6551C94.4134 81.036 94.93 81.25 95.4688 81.25Z" fill="black"/>
<path d="M32.5 58.9062H28.4375C27.8988 58.9062 27.3821 59.1203 27.0012 59.5012C26.6203 59.8821 26.4062 60.3988 26.4062 60.9375V73.125C26.4062 73.6637 26.6203 74.1804 27.0012 74.5613C27.3821 74.9422 27.8988 75.1562 28.4375 75.1562H32.5C33.8468 75.1562 35.1384 74.6212 36.0908 73.6689C37.0431 72.7166 37.5781 71.4249 37.5781 70.0781C37.5748 68.9756 37.2086 67.9049 36.5361 67.0312C37.2086 66.1576 37.5748 65.0869 37.5781 63.9844C37.5781 62.6376 37.0431 61.3459 36.0908 60.3936C35.1384 59.4413 33.8468 58.9062 32.5 58.9062ZM33.5156 63.9844C33.5156 64.2537 33.4086 64.5121 33.2182 64.7025C33.0277 64.893 32.7694 65 32.5 65H30.4688V62.9688H32.5C32.7694 62.9688 33.0277 63.0758 33.2182 63.2662C33.4086 63.4567 33.5156 63.715 33.5156 63.9844ZM32.5 71.0938H30.4688V69.0625H32.5C32.7694 69.0625 33.0277 69.1695 33.2182 69.36C33.4086 69.5504 33.5156 69.8088 33.5156 70.0781C33.5156 70.3475 33.4086 70.6058 33.2182 70.7963C33.0277 70.9867 32.7694 71.0938 32.5 71.0938ZM38.0859 65V69.0625C38.0859 70.6787 38.728 72.2286 39.8708 73.3714C41.0136 74.5142 42.5635 75.1562 44.1797 75.1562C45.7959 75.1562 47.3458 74.5142 48.4886 73.3714C49.6314 72.2286 50.2734 70.6787 50.2734 69.0625V65C50.2734 63.3838 49.6314 61.8339 48.4886 60.6911C47.3458 59.5483 45.7959 58.9063 44.1797 58.9062C42.5635 58.9063 41.0136 59.5483 39.8708 60.6911C38.728 61.8339 38.0859 63.3838 38.0859 65ZM46.2109 65V69.0625C46.2109 69.6012 45.9969 70.1179 45.616 70.4988C45.2351 70.8797 44.7184 71.0938 44.1797 71.0938C43.641 71.0938 43.1243 70.8797 42.7434 70.4988C42.3624 70.1179 42.1484 69.6012 42.1484 69.0625V65C42.1484 64.4613 42.3624 63.9446 42.7434 63.5637C43.1243 63.1828 43.641 62.9688 44.1797 62.9688C44.7184 62.9688 45.2351 63.1828 45.616 63.5637C45.9969 63.9446 46.2109 64.4613 46.2109 65ZM50.7812 65V69.0625C50.7812 70.6787 51.4233 72.2286 52.5661 73.3714C53.7089 74.5142 55.2588 75.1562 56.875 75.1562C58.4912 75.1562 60.0411 74.5142 61.1839 73.3714C62.3267 72.2286 62.9688 70.6787 62.9688 69.0625V65C62.9687 63.3838 62.3267 61.8339 61.1839 60.6911C60.0411 59.5483 58.4912 58.9063 56.875 58.9062C55.2588 58.9063 53.7089 59.5483 52.5661 60.6911C51.4233 61.8339 50.7813 63.3838 50.7812 65ZM58.9062 65V69.0625C58.9062 69.6012 58.6922 70.1179 58.3113 70.4988C57.9304 70.8797 57.4137 71.0938 56.875 71.0938C56.3363 71.0938 55.8196 70.8797 55.4387 70.4988C55.0578 70.1179 54.8438 69.6012 54.8438 69.0625V65C54.8438 64.4613 55.0578 63.9446 55.4387 63.5637C55.8196 63.1828 56.3363 62.9688 56.875 62.9688C57.4137 62.9688 57.9304 63.1828 58.3113 63.5637C58.6922 63.9446 58.9062 64.4613 58.9062 65ZM73.6227 59.5014C73.2417 59.1206 72.7252 58.9067 72.1866 58.9067C71.6479 58.9067 71.1314 59.1206 70.7505 59.5014L68.1241 62.1278V60.9375C68.1241 60.3988 67.9101 59.8821 67.5291 59.5012C67.1482 59.1203 66.6315 58.9062 66.0928 58.9062C65.5541 58.9062 65.0374 59.1203 64.6565 59.5012C64.2756 59.8821 64.0616 60.3988 64.0616 60.9375V73.125C64.0616 73.6637 64.2756 74.1804 64.6565 74.5613C65.0374 74.9422 65.5541 75.1562 66.0928 75.1562C66.6315 75.1562 67.1482 74.9422 67.5291 74.5613C67.9101 74.1804 68.1241 73.6637 68.1241 73.125V71.9347L70.7505 74.5611C71.1336 74.9311 71.6467 75.1358 72.1793 75.1312C72.7118 75.1266 73.2213 74.913 73.5979 74.5364C73.9745 74.1597 74.1881 73.6503 74.1928 73.1177C74.1974 72.5851 73.9927 72.072 73.6227 71.6889L68.965 67.0312L73.6227 62.3736C74.0035 61.9927 74.2174 61.4761 74.2174 60.9375C74.2174 60.3989 74.0035 59.8823 73.6227 59.5014ZM90.8111 59.5014C90.4302 59.1206 89.9136 58.9067 89.375 58.9067C88.8364 58.9067 88.3198 59.1206 87.9389 59.5014L85.3125 62.1278V60.9375C85.3125 60.3988 85.0985 59.8821 84.7176 59.5012C84.3366 59.1203 83.82 58.9062 83.2812 58.9062C82.7425 58.9062 82.2259 59.1203 81.8449 59.5012C81.464 59.8821 81.25 60.3988 81.25 60.9375V73.125C81.25 73.6637 81.464 74.1804 81.8449 74.5613C82.2259 74.9422 82.7425 75.1562 83.2812 75.1562C83.82 75.1562 84.3366 74.9422 84.7176 74.5613C85.0985 74.1804 85.3125 73.6637 85.3125 73.125V71.9347L87.9389 74.5611C88.322 74.9311 88.8351 75.1358 89.3677 75.1312C89.9003 75.1266 90.4097 74.913 90.7864 74.5364C91.163 74.1597 91.3766 73.6503 91.3812 73.1177C91.3858 72.5851 91.1811 72.072 90.8111 71.6889L86.1534 67.0312L90.8111 62.3736C91.1919 61.9927 91.4058 61.4761 91.4058 60.9375C91.4058 60.3989 91.1919 59.8823 90.8111 59.5014ZM75.1562 60.9375V73.125C75.1562 73.6637 75.3703 74.1804 75.7512 74.5613C76.1321 74.9422 76.6488 75.1562 77.1875 75.1562C77.7262 75.1562 78.2429 74.9422 78.6238 74.5613C79.0047 74.1804 79.2188 73.6637 79.2188 73.125V60.9375C79.2188 60.3988 79.0047 59.8821 78.6238 59.5012C78.2429 59.1203 77.7262 58.9062 77.1875 58.9062C76.6488 58.9062 76.1321 59.1203 75.7512 59.5012C75.3703 59.8821 75.1562 60.3988 75.1562 60.9375Z" fill="black"/>
<path d="M97.5 75.1563C99.1162 75.1563 100.666 74.5142 101.809 73.3714C102.952 72.2286 103.594 70.6787 103.594 69.0625C103.594 68.5238 103.38 68.0071 102.999 67.6262C102.618 67.2453 102.101 67.0313 101.562 67.0313H99.5312C99.0841 67.0313 98.6495 67.1788 98.2948 67.451C97.94 67.7232 97.685 68.1049 97.5693 68.5368C97.4536 68.9687 97.4836 69.4267 97.6547 69.8398C97.8258 70.2529 98.1284 70.598 98.5156 70.8216C98.2068 70.9999 97.8566 71.0937 97.5 71.0937C97.1435 71.0937 96.7932 70.9999 96.4844 70.8216C96.1756 70.6433 95.9192 70.3869 95.7409 70.0781C95.5626 69.7693 95.4688 69.4191 95.4688 69.0625V65C95.468 64.5522 95.6152 64.1167 95.8875 63.7613C96.1598 63.4058 96.542 63.1503 96.9745 63.0345C97.4071 62.9186 97.8658 62.949 98.2793 63.1207C98.6928 63.2925 99.038 63.5962 99.2611 63.9844C99.3899 64.2238 99.5656 64.4349 99.7775 64.6053C99.9895 64.7756 100.233 64.9016 100.495 64.9758C100.757 65.0501 101.03 65.0711 101.3 65.0376C101.57 65.004 101.83 64.9167 102.066 64.7807C102.301 64.6446 102.507 64.4627 102.671 64.2457C102.835 64.0287 102.953 63.7811 103.02 63.5174C103.086 63.2537 103.099 62.9794 103.057 62.7107C103.015 62.442 102.92 62.1844 102.777 61.9531C102.106 60.7915 101.071 59.8836 99.8318 59.3703C98.5925 58.857 97.2185 58.767 95.9228 59.1142C94.6271 59.4614 93.4822 60.2264 92.6656 61.2905C91.849 62.3547 91.4063 63.6586 91.4062 65V69.0625C91.4062 70.6787 92.0483 72.2286 93.1911 73.3714C94.3339 74.5142 95.8838 75.1563 97.5 75.1563ZM56.875 85.3125C55.7976 85.3125 54.7642 85.7405 54.0024 86.5024C53.2405 87.2642 52.8125 88.2976 52.8125 89.375V93.4375C52.8125 94.5149 53.2405 95.5483 54.0024 96.3101C54.7642 97.072 55.7976 97.5 56.875 97.5H73.125C74.2024 97.5 75.2358 97.072 75.9976 96.3101C76.7595 95.5483 77.1875 94.5149 77.1875 93.4375V89.375C77.1875 88.2976 76.7595 87.2642 75.9976 86.5024C75.2358 85.7405 74.2024 85.3125 73.125 85.3125H56.875ZM56.875 93.4375V89.375H73.125V93.4375H56.875Z" fill="black"/>
</svg>
