<svg width="112" height="112" viewBox="0 0 112 112" fill="none" xmlns="http://www.w3.org/2000/svg">
<path d="M94.5 108.5H101.5C103.357 108.5 105.137 107.763 106.45 106.45C107.763 105.137 108.5 103.357 108.5 101.5V10.5C108.5 8.64348 107.763 6.86301 106.45 5.55025C105.137 4.2375 103.357 3.5 101.5 3.5H94.5V108.5Z" fill="#36393F"/>
<path d="M45.5 80.5V101.5C45.5 103.357 46.2375 105.137 47.5503 106.45C48.863 107.763 50.6435 108.5 52.5 108.5H94.5C96.3565 108.5 98.137 107.763 99.4497 106.45C100.763 105.137 101.5 103.357 101.5 101.5V10.5C101.5 8.64348 100.763 6.86301 99.4497 5.55025C98.137 4.2375 96.3565 3.5 94.5 3.5H52.5C50.6435 3.5 48.863 4.2375 47.5503 5.55025C46.2375 6.86301 45.5 8.64348 45.5 10.5V80.5Z" fill="#2B2E33"/>
<path d="M94.5 5.25H52.5C49.6005 5.25 47.25 7.60051 47.25 10.5V101.5C47.25 104.399 49.6005 106.75 52.5 106.75H94.5C97.3995 106.75 99.75 104.399 99.75 101.5V10.5C99.75 7.60051 97.3995 5.25 94.5 5.25Z" fill="#EAEBEF"/>
<path d="M94.5 5.25H59.675C58.2362 5.25 56.8563 5.82156 55.8389 6.83895C54.8216 7.85633 54.25 9.2362 54.25 10.675V79.5498C54.2505 83.9788 56.0101 88.2263 59.1419 91.3581C62.2737 94.4899 66.5212 96.2495 70.9502 96.25H91.2503C92.3667 96.2498 93.4721 96.0296 94.5035 95.6022C95.5349 95.1747 96.4719 94.5483 97.2612 93.7587C98.0505 92.9691 98.6765 92.0318 99.1035 91.0003C99.5306 89.9687 99.7502 88.8632 99.75 87.7467V10.5C99.75 9.10761 99.1969 7.77226 98.2123 6.78769C97.2277 5.80312 95.8924 5.25 94.5 5.25Z" fill="#F6F8FF"/>
<path d="M59.5 3.5L61.25 10.5H85.75L87.5 3.5H59.5Z" fill="#2B2E33"/>
<path d="M62.1443 73.5H85.75C86.2141 73.5 86.6593 73.6844 86.9874 74.0126C87.3156 74.3408 87.5 74.7859 87.5 75.25V82.25C87.5 82.7141 87.3156 83.1592 86.9874 83.4874C86.6593 83.8156 86.2141 84 85.75 84H66.325L62.1443 73.5Z" fill="#1CB15F"/>
<path d="M45.5 66.5L38.045 70.9958C37.6511 71.2252 37.3242 71.5539 37.097 71.9491C36.8698 72.3443 36.7501 72.7921 36.75 73.248V86.254C36.7509 86.8282 36.9159 87.3902 37.2255 87.8738C37.5351 88.3574 37.9764 88.7425 38.4975 88.9837C39.0186 89.225 39.5977 89.3123 40.1668 89.2355C40.7358 89.1586 41.2711 88.9208 41.7095 88.55L57.792 74.9403C58.8953 74.009 60.2928 73.4988 61.7365 73.5H62.1443C62.9461 73.5 63.74 73.6579 64.4808 73.9648C65.2216 74.2716 65.8947 74.7214 66.4617 75.2883C67.0286 75.8553 67.4784 76.5284 67.7852 77.2692C68.0921 78.01 68.25 78.8039 68.25 79.6057C68.2506 80.4403 68.0801 81.2661 67.749 82.0321C67.4179 82.7981 66.9333 83.4882 66.325 84.0595L43.4875 105.465C41.4071 107.415 38.663 108.5 35.812 108.5H3.5V84L9.04225 82.8923C11.0984 82.4774 12.9158 81.2866 14.1173 79.5672L22.3317 67.8318C23.755 65.8036 25.6372 64.1402 27.825 62.9772L38.794 55.2772C39.7418 54.61 40.8724 54.2513 42.0315 54.25H45.5V66.5Z" fill="#F4C8AD"/>
<path d="M68.25 79.6057C68.2473 78.1037 67.689 76.6557 66.6825 75.5407C65.6761 74.4257 64.2927 73.7225 62.7987 73.5665L62.9738 74.8317C63.2152 76.5542 63.031 78.3096 62.4373 79.9444C61.8437 81.5792 60.8586 83.0438 59.5683 84.21L42.6195 99.5242C40.2106 101.699 37.0799 102.902 33.8345 102.9H23.9295C22.4457 102.9 20.9763 102.608 19.6054 102.04C18.2345 101.473 16.9888 100.641 15.9395 99.5915C14.8902 98.5424 14.0578 97.2968 13.4899 95.926C12.922 94.5551 12.6297 93.0858 12.6298 91.602V81.1422C11.5982 82.0151 10.3651 82.6166 9.04225 82.8922L3.5 84V108.5H35.812C38.663 108.5 41.4071 107.415 43.4875 105.465L66.325 84.0595C66.9333 83.4881 67.4179 82.7981 67.749 82.0321C68.0801 81.2661 68.2506 80.4403 68.25 79.6057ZM38.9848 64.8462C38.2974 65.3021 37.7336 65.921 37.3437 66.6478C36.9538 67.3745 36.7498 68.1865 36.75 69.0112V73.248C36.7501 72.7921 36.8698 72.3443 37.097 71.9491C37.3242 71.5539 37.6511 71.2252 38.045 70.9957L45.5 66.5V61.3777L38.9848 64.8462Z" fill="#F2B9A1"/>
<path d="M81.375 73.5H74.375C71.9588 73.5 70 75.4588 70 77.875C70 80.2912 71.9588 82.25 74.375 82.25H81.375C83.7912 82.25 85.75 80.2912 85.75 77.875C85.75 75.4588 83.7912 73.5 81.375 73.5Z" fill="#27D674"/>
<path d="M73.5 56C82.1985 56 89.25 48.9485 89.25 40.25C89.25 31.5515 82.1985 24.5 73.5 24.5C64.8015 24.5 57.75 31.5515 57.75 40.25C57.75 48.9485 64.8015 56 73.5 56Z" fill="#EAEBEF"/>
<path d="M73.5 52.5C82.1985 52.5 89.25 45.4485 89.25 36.75C89.25 28.0515 82.1985 21 73.5 21C64.8015 21 57.75 28.0515 57.75 36.75C57.75 45.4485 64.8015 52.5 73.5 52.5Z" fill="#1CB15F"/>
<path d="M73.5 43.75C81.232 43.75 87.5 38.6572 87.5 32.375C87.5 26.0928 81.232 21 73.5 21C65.768 21 59.5 26.0928 59.5 32.375C59.5 38.6572 65.768 43.75 73.5 43.75Z" fill="#27D674"/>
<path d="M8.3895 77.3062C8.06912 77.3062 7.7549 77.2182 7.4811 77.0518C7.20729 76.8855 6.9844 76.6472 6.83674 76.3628C6.68907 76.0785 6.62229 75.7591 6.64367 75.4394C6.66506 75.1198 6.77378 74.8121 6.958 74.55L10.8168 69.0375C11.0836 68.6574 11.4906 68.3988 11.9481 68.3188C12.4056 68.2387 12.8761 68.3436 13.2563 68.6105C13.6364 68.8774 13.8949 69.2843 13.975 69.7418C14.0551 70.1993 13.9501 70.6699 13.6833 71.05L9.83325 76.5625C9.67062 76.7939 9.45432 76.9825 9.20288 77.112C8.95144 77.2415 8.67234 77.3082 8.3895 77.3062ZM16.604 65.5707C16.2853 65.5694 15.9731 65.481 15.701 65.3152C15.4288 65.1493 15.2071 64.9124 15.0598 64.6298C14.9125 64.3472 14.8451 64.0298 14.865 63.7117C14.8848 63.3936 14.9912 63.0871 15.1725 62.825C17.2714 59.8372 20.0078 57.353 23.184 55.552L29.5558 51.0772C29.7435 50.9407 29.9566 50.843 30.1825 50.7896C30.4085 50.7363 30.6428 50.7284 30.8718 50.7665C31.1008 50.8046 31.3199 50.8878 31.5164 51.0114C31.7129 51.135 31.8829 51.2965 32.0164 51.4864C32.1499 51.6763 32.2442 51.8909 32.294 52.1177C32.3438 52.3444 32.3479 52.5788 32.3062 52.8072C32.2645 53.0356 32.1778 53.2533 32.0511 53.4479C31.9244 53.6424 31.7603 53.8098 31.5683 53.9402L25.144 58.45L25.046 58.5165C25.0164 58.5353 24.9861 58.5528 24.955 58.569C22.2122 60.1145 19.8498 62.2539 18.0408 64.8305C17.8784 65.0603 17.6631 65.2476 17.413 65.3764C17.1628 65.5053 16.8854 65.5719 16.604 65.5707ZM71.75 45.5C71.2859 45.4999 70.8409 45.3155 70.5128 44.9872L65.2628 39.7372C64.944 39.4072 64.7676 38.9651 64.7716 38.5063C64.7756 38.0474 64.9596 37.6085 65.2841 37.2841C65.6085 36.9596 66.0475 36.7755 66.5063 36.7716C66.9651 36.7676 67.4072 36.944 67.7373 37.2627L71.6503 41.1757L80.9253 30.3607C81.2325 30.0282 81.6566 29.8277 82.1085 29.8013C82.5605 29.7749 83.0051 29.9246 83.3489 30.2191C83.6928 30.5136 83.9091 30.9299 83.9526 31.3805C83.996 31.8311 83.8631 32.281 83.5818 32.6357L73.0818 44.8857C72.9249 45.0685 72.7321 45.2169 72.5153 45.3217C72.2985 45.4265 72.0624 45.4854 71.8218 45.4947L71.75 45.5Z" fill="#F6F8FF"/>
<path d="M91 61.25H56C55.5359 61.25 55.0908 61.0656 54.7626 60.7374C54.4344 60.4092 54.25 59.9641 54.25 59.5C54.25 59.0359 54.4344 58.5908 54.7626 58.2626C55.0908 57.9344 55.5359 57.75 56 57.75H91C91.4641 57.75 91.9092 57.9344 92.2374 58.2626C92.5656 58.5908 92.75 59.0359 92.75 59.5C92.75 59.9641 92.5656 60.4092 92.2374 60.7374C91.9092 61.0656 91.4641 61.25 91 61.25ZM84 68.25H63C62.5359 68.25 62.0908 68.0656 61.7626 67.7374C61.4344 67.4092 61.25 66.9641 61.25 66.5C61.25 66.0359 61.4344 65.5908 61.7626 65.2626C62.0908 64.9344 62.5359 64.75 63 64.75H84C84.4641 64.75 84.9092 64.9344 85.2374 65.2626C85.5656 65.5908 85.75 66.0359 85.75 66.5C85.75 66.9641 85.5656 67.4092 85.2374 67.7374C84.9092 68.0656 84.4641 68.25 84 68.25Z" fill="#1CB15F"/>
<path d="M80.5 64.75H66.5C65.5335 64.75 64.75 65.5335 64.75 66.5C64.75 67.4665 65.5335 68.25 66.5 68.25H80.5C81.4665 68.25 82.25 67.4665 82.25 66.5C82.25 65.5335 81.4665 64.75 80.5 64.75Z" fill="#27D674"/>
<path d="M87.5 57.75H59.5C58.5335 57.75 57.75 58.5335 57.75 59.5C57.75 60.4665 58.5335 61.25 59.5 61.25H87.5C88.4665 61.25 89.25 60.4665 89.25 59.5C89.25 58.5335 88.4665 57.75 87.5 57.75Z" fill="#27D674"/>
<path d="M73.5 29.75C76.3995 29.75 78.75 28.183 78.75 26.25C78.75 24.317 76.3995 22.75 73.5 22.75C70.6005 22.75 68.25 24.317 68.25 26.25C68.25 28.183 70.6005 29.75 73.5 29.75Z" fill="#D4F7E3"/>
<path d="M108.5 14C108.5 12.067 106.933 10.5 105 10.5C103.067 10.5 101.5 12.067 101.5 14V98C101.5 99.933 103.067 101.5 105 101.5C106.933 101.5 108.5 99.933 108.5 98V14Z" fill="#3F4349"/>
<path d="M16.604 65.5708C16.886 65.5712 17.1639 65.5034 17.414 65.3733C17.6642 65.2432 17.8792 65.0546 18.0408 64.8235C19.8498 62.2469 22.2122 60.1075 24.955 58.562C24.9861 58.5458 25.0164 58.5283 25.046 58.5095L25.144 58.443L31.5683 53.9315C31.7603 53.801 31.9244 53.6337 32.0511 53.4391C32.1778 53.2446 32.2645 53.0268 32.3062 52.7984C32.3479 52.5701 32.3438 52.3357 32.294 52.1089C32.2442 51.8822 32.1499 51.6676 32.0164 51.4777C31.8829 51.2878 31.7129 51.1263 31.5164 51.0027C31.3199 50.8791 31.1008 50.7958 30.8718 50.7578C30.6428 50.7197 30.4085 50.7276 30.1825 50.7809C29.9566 50.8342 29.7435 50.932 29.5558 51.0685L23.184 55.5433C20.0069 57.3468 17.2704 59.834 15.1725 62.825C14.9888 63.0871 14.8804 63.3946 14.8593 63.714C14.8382 64.0334 14.9051 64.3525 15.0527 64.6365C15.2003 64.9205 15.423 65.1586 15.6965 65.3249C15.97 65.4912 16.2839 65.5792 16.604 65.5795V65.5708ZM8.3895 77.3063C8.67102 77.3066 8.94846 77.239 9.19828 77.1092C9.44809 76.9794 9.66291 76.7913 9.8245 76.5608L13.6833 71.05C13.8152 70.8618 13.9087 70.6494 13.9586 70.4251C14.0084 70.2007 14.0136 69.9687 13.9738 69.7423C13.9339 69.516 13.8499 69.2997 13.7265 69.1058C13.6031 68.9119 13.4427 68.7442 13.2545 68.6123C13.0663 68.4803 12.8539 68.3868 12.6296 68.337C12.4052 68.2871 12.1732 68.2819 11.9468 68.3218C11.7205 68.3616 11.5042 68.4456 11.3103 68.569C11.1164 68.6924 10.9487 68.8528 10.8168 69.041L6.96675 74.5535C6.78302 74.8156 6.67469 75.1231 6.65357 75.4425C6.63244 75.7619 6.69932 76.081 6.84693 76.365C6.99454 76.649 7.21722 76.8871 7.49074 77.0534C7.76427 77.2197 8.07816 77.3077 8.39825 77.308L8.3895 77.3063ZM73.5 54.25C76.9612 54.25 80.3446 53.2236 83.2225 51.3007C86.1003 49.3778 88.3434 46.6447 89.6679 43.447C90.9924 40.2493 91.339 36.7306 90.6637 33.3359C89.9885 29.9413 88.3218 26.8231 85.8744 24.3756C83.4269 21.9282 80.3088 20.2615 76.9141 19.5863C73.5194 18.911 70.0007 19.2576 66.803 20.5821C63.6053 21.9066 60.8722 24.1497 58.9493 27.0275C57.0264 29.9054 56 33.2888 56 36.75C56.0051 41.3897 57.8505 45.838 61.1313 49.1187C64.412 52.3995 68.8603 54.2449 73.5 54.25ZM73.5 22.75C76.2689 22.75 78.9757 23.5711 81.278 25.1094C83.5803 26.6478 85.3747 28.8343 86.4343 31.3924C87.4939 33.9506 87.7712 36.7655 87.231 39.4813C86.6908 42.197 85.3574 44.6916 83.3995 46.6495C81.4416 48.6074 78.947 49.9408 76.2313 50.481C73.5155 51.0212 70.7006 50.7439 68.1424 49.6843C65.5843 48.6247 63.3978 46.8303 61.8594 44.528C60.3211 42.2257 59.5 39.5189 59.5 36.75C59.5042 33.0383 60.9805 29.4797 63.6051 26.8551C66.2297 24.2305 69.7882 22.7542 73.5 22.75Z" fill="black"/>
<path d="M70.5127 44.9872C70.8409 45.3155 71.2859 45.4999 71.75 45.5H71.8183C72.0589 45.4906 72.295 45.4317 72.5118 45.3269C72.7286 45.2221 72.9214 45.0737 73.0782 44.891L83.5782 32.641C83.8596 32.2863 83.9925 31.8364 83.9491 31.3857C83.9056 30.9351 83.6893 30.5188 83.3454 30.2244C83.0016 29.9299 82.557 29.7801 82.105 29.8065C81.6531 29.8329 81.229 30.0335 80.9218 30.366L71.6468 41.181L67.7338 37.268C67.4037 36.9492 66.9616 36.7728 66.5028 36.7768C66.044 36.7808 65.605 36.9648 65.2806 37.2893C64.9561 37.6138 64.7721 38.0527 64.7681 38.5115C64.7641 38.9704 64.9405 39.4124 65.2593 39.7425L70.5127 44.9872ZM91 57.75H56C55.5359 57.75 55.0908 57.9344 54.7626 58.2626C54.4344 58.5907 54.25 59.0359 54.25 59.5C54.25 59.9641 54.4344 60.4092 54.7626 60.7374C55.0908 61.0656 55.5359 61.25 56 61.25H91C91.4641 61.25 91.9092 61.0656 92.2374 60.7374C92.5656 60.4092 92.75 59.9641 92.75 59.5C92.75 59.0359 92.5656 58.5907 92.2374 58.2626C91.9092 57.9344 91.4641 57.75 91 57.75ZM84 64.75H63C62.5359 64.75 62.0908 64.9344 61.7626 65.2626C61.4344 65.5907 61.25 66.0359 61.25 66.5C61.25 66.9641 61.4344 67.4092 61.7626 67.7374C62.0908 68.0656 62.5359 68.25 63 68.25H84C84.4641 68.25 84.9092 68.0656 85.2374 67.7374C85.5656 67.4092 85.75 66.9641 85.75 66.5C85.75 66.0359 85.5656 65.5907 85.2374 65.2626C84.9092 64.9344 84.4641 64.75 84 64.75Z" fill="black"/>
<path d="M101.5 1.75H52.5C50.1802 1.75278 47.9562 2.67554 46.3159 4.31589C44.6755 5.95623 43.7528 8.18021 43.75 10.5V52.5H42.0332C40.5127 52.4973 39.0288 52.9663 37.786 53.8423L26.9028 61.4863C24.5175 62.7797 22.4651 64.6092 20.9072 66.8308L12.691 78.575C11.7476 79.9276 10.3169 80.8622 8.69925 81.1825L3.15 82.285C2.75472 82.3657 2.39946 82.5805 2.14434 82.893C1.88922 83.2055 1.74992 83.5966 1.75 84V108.5C1.75 108.964 1.93437 109.409 2.26256 109.737C2.59075 110.066 3.03587 110.25 3.5 110.25H35.812C39.1075 110.257 42.2812 109.005 44.6845 106.75L45.1815 106.285C45.9769 107.5 47.0623 108.5 48.3398 109.192C49.6173 109.884 51.047 110.248 52.5 110.25H101.5C103.82 110.247 106.044 109.324 107.684 107.684C109.324 106.044 110.247 103.82 110.25 101.5V10.5C110.247 8.18021 109.324 5.95623 107.684 4.31589C106.044 2.67554 103.82 1.75278 101.5 1.75ZM85.2583 5.25L84.3833 8.75H62.6167L61.7417 5.25H85.2583ZM40.579 87.2165C40.3952 87.3718 40.1708 87.4714 39.9323 87.5036C39.6938 87.5358 39.4511 87.4991 39.2327 87.398C39.0143 87.2969 38.8293 87.1355 38.6995 86.9328C38.5697 86.7302 38.5005 86.4947 38.5 86.254V73.248C38.5017 73.094 38.544 72.9431 38.6226 72.8107C38.7013 72.6782 38.8135 72.5689 38.948 72.4938L43.75 69.5975V84.5338L40.579 87.2165ZM35.812 106.75H5.25V85.435L9.38525 84.6073C11.8864 84.1147 14.0993 82.672 15.5592 80.5823L23.7738 68.8468C25.0375 67.0466 26.7063 65.5685 28.6457 64.5313C28.709 64.4973 28.7703 64.4599 28.8295 64.4193L39.7967 56.7193C40.4522 56.2609 41.2334 56.0164 42.0332 56.0193H43.75V65.5305L37.1613 69.503C36.5075 69.8865 35.9645 70.4333 35.5856 71.0898C35.2068 71.7464 35.005 72.49 35 73.248V86.254C35.0004 87.1622 35.2604 88.0514 35.7494 88.8167C36.2384 89.582 36.936 90.1916 37.7599 90.5736C38.5839 90.9556 39.4999 91.0941 40.3999 90.9728C41.3 90.8514 42.1466 90.4753 42.84 89.8888L58.9225 76.2808C59.7093 75.6155 60.7062 75.2504 61.7365 75.25H62.1443C63.0052 75.2471 63.8476 75.5002 64.5643 75.9772C65.2811 76.4542 65.8398 77.1335 66.1696 77.9288C66.4993 78.7241 66.5852 79.5995 66.4162 80.4437C66.2473 81.2879 65.8312 82.0629 65.2208 82.67C65.1315 82.7444 65.05 82.8277 64.9775 82.9185L42.2905 104.188C40.5361 105.836 38.219 106.752 35.812 106.75ZM68.6753 75.25H85.75V82.25H69.5013C69.9385 81.1031 70.0917 79.8675 69.9479 78.6486C69.8041 77.4296 69.3674 76.2636 68.6753 75.25ZM47.7995 103.822L67.0757 85.75H85.75C86.6783 85.75 87.5685 85.3813 88.2249 84.7249C88.8813 84.0685 89.25 83.1783 89.25 82.25V75.25C89.25 74.3217 88.8813 73.4315 88.2249 72.7751C87.5685 72.1188 86.6783 71.75 85.75 71.75H61.7365C59.8781 71.7504 58.0799 72.4095 56.6615 73.6103L47.25 81.5728V10.5C47.25 9.10761 47.8031 7.77226 48.7877 6.78769C49.7723 5.80312 51.1076 5.25 52.5 5.25H58.1333L59.5525 10.9253C59.6473 11.3037 59.8658 11.6396 60.1734 11.8796C60.4809 12.1196 60.8599 12.25 61.25 12.25H85.75C86.1401 12.25 86.5191 12.1196 86.8266 11.8796C87.1342 11.6396 87.3527 11.3037 87.4475 10.9253L88.8667 5.25H94.5C95.8924 5.25 97.2277 5.80312 98.2123 6.78769C99.1969 7.77226 99.75 9.10761 99.75 10.5V101.5C99.75 102.892 99.1969 104.228 98.2123 105.212C97.2277 106.197 95.8924 106.75 94.5 106.75H52.5C51.5215 106.749 50.5629 106.474 49.7323 105.956C48.9018 105.439 48.2323 104.7 47.7995 103.822ZM106.75 101.5C106.75 102.892 106.197 104.228 105.212 105.212C104.228 106.197 102.892 106.75 101.5 106.75H101.454C102.613 105.244 103.244 103.4 103.25 101.5V10.5C103.244 8.60043 102.613 6.75568 101.454 5.25H101.5C102.892 5.25 104.228 5.80312 105.212 6.78769C106.197 7.77226 106.75 9.10761 106.75 10.5V101.5Z" fill="black"/>
</svg>
