<svg width="116" height="116" viewBox="0 0 116 116" fill="none" xmlns="http://www.w3.org/2000/svg">
<g clip-path="url(#clip0_1_2)">
<path d="M26.8091 30.9938H5.88428C3.57289 30.9938 1.69945 29.1201 1.69945 26.8089V5.88405C1.69945 3.57289 3.57312 1.69922 5.88428 1.69922H26.8089C29.1203 1.69922 30.9938 3.57289 30.9938 5.88405V26.8087C30.994 29.1201 29.1203 30.9938 26.8091 30.9938Z" fill="#DF75A5"/>
<path d="M27.161 1.69922C27.2052 2.28035 27.2276 2.8676 27.2276 3.46006C27.2276 16.1143 16.9693 26.3726 4.31511 26.3726C3.43039 26.3726 2.55812 26.3207 1.69945 26.223V26.791C1.69945 29.1024 3.57312 30.9758 5.88428 30.9758H26.8089C29.1201 30.9758 30.9938 29.1022 30.9938 26.791V5.86638C30.994 3.67394 29.3072 1.8782 27.161 1.69922Z" fill="#DD5790"/>
<path d="M26.8091 67.6121H5.88428C3.57289 67.6121 1.69945 65.7385 1.69945 63.4273V42.5027C1.69945 40.1913 3.57312 38.3178 5.88428 38.3178H26.8089C29.1203 38.3178 30.9938 40.1915 30.9938 42.5027V63.4273C30.994 65.7385 29.1203 67.6121 26.8091 67.6121Z" fill="#FFE07D"/>
<path d="M27.161 38.3264C27.2052 38.9076 27.2276 39.4948 27.2276 40.0873C27.2276 52.7415 16.9693 62.9998 4.31511 62.9998C3.43039 62.9998 2.55812 62.9479 1.69945 62.8503V63.4182C1.69945 65.7296 3.57312 67.6031 5.88428 67.6031H26.8089C29.1201 67.6031 30.9938 65.7294 30.9938 63.4182V42.4936C30.994 40.3009 29.3072 38.5054 27.161 38.3264Z" fill="#FFD064"/>
<path d="M90.4333 30.9938H69.5087C67.1973 30.9938 65.3239 29.1201 65.3239 26.8089V5.88405C65.3239 3.57266 67.1975 1.69922 69.5087 1.69922H90.4333C92.7447 1.69922 94.6182 3.57289 94.6182 5.88405V26.8087C94.6182 29.1201 92.7445 30.9938 90.4333 30.9938Z" fill="#B3E59F"/>
<path d="M90.7852 1.71689C90.8294 2.29802 90.8518 2.88527 90.8518 3.47773C90.8518 16.1319 80.5935 26.3902 67.9393 26.3902C67.0546 26.3902 66.1823 26.3383 65.3236 26.2407V26.8087C65.3236 29.1201 67.1973 30.9935 69.5085 30.9935H90.4331C92.7443 30.9935 94.6179 29.1198 94.6179 26.8087V5.88405C94.6182 3.69161 92.9314 1.8961 90.7852 1.71689Z" fill="#95D6A4"/>
<path d="M90.4333 67.6121H69.5087C67.1973 67.6121 65.3239 65.7385 65.3239 63.4273V42.5027C65.3239 40.1913 67.1975 38.3178 69.5087 38.3178H90.4333C92.7447 38.3178 94.6182 40.1915 94.6182 42.5027V63.4273C94.6182 65.7385 92.7445 67.6121 90.4333 67.6121Z" fill="#90D8F9"/>
<path d="M90.7852 38.3353C90.8294 38.9164 90.8518 39.5037 90.8518 40.0961C90.8518 52.7503 80.5935 63.0086 67.9393 63.0086C67.0546 63.0086 66.1823 62.9567 65.3236 62.8591V63.4271C65.3236 65.7385 67.1973 67.6119 69.5085 67.6119H90.4331C92.7443 67.6119 94.6179 65.7382 94.6179 63.4271V42.5024C94.6182 40.31 92.9314 38.5143 90.7852 38.3353Z" fill="#75CEF9"/>
<path d="M20.6466 112.178L23.5722 114.3H64.8981L62.4257 106.297L61.9716 97.9998C61.9308 97.2525 61.7984 96.513 61.5774 95.7979L54.4439 72.7075C53.7112 70.3361 51.2432 68.8861 48.8473 69.5341C46.332 70.2142 44.9022 72.8367 45.6648 75.3048L44.2785 70.8178C43.5458 68.4464 41.078 66.9963 38.6819 67.6443C36.1666 68.3245 34.7368 70.9469 35.4994 73.4151L34.1808 69.1467C33.4481 66.7752 30.9802 65.3252 28.5843 65.9732C26.069 66.6533 24.6391 69.2758 25.4017 71.744L20.8404 56.9796C20.1076 54.6081 17.6397 53.1581 15.2438 53.8061C12.7285 54.4862 11.2987 57.1087 12.0613 59.5769L20.1679 85.8169C19.4216 83.4015 16.8587 82.0485 14.4436 82.7948C12.0282 83.5411 10.6752 86.1039 11.4215 88.5191L17.2763 107.47C17.8608 109.363 19.0435 111.014 20.6466 112.178Z" fill="#FFDDCE"/>
<path d="M37.4963 114.3H64.8981L62.4257 106.297L61.9716 97.9998C61.9308 97.2525 61.7984 96.513 61.5774 95.7979L56.9929 80.9583C55.2221 90.869 50.419 105 37.4963 114.3Z" fill="#FFCBBE"/>
<path d="M5.88409 32.6927H26.8094C30.0535 32.6927 32.6932 30.0533 32.6932 26.8089V5.88383C32.693 2.63945 30.0535 0 26.8094 0H15.2275C14.2889 0 13.5283 0.760797 13.5283 1.69922C13.5283 2.63764 14.2889 3.39844 15.2275 3.39844H26.8094C28.1799 3.39844 29.2948 4.51335 29.2948 5.88383V26.8091C29.2948 28.1796 28.1799 29.2945 26.8094 29.2945H5.88409C4.51361 29.2945 3.3987 28.1796 3.3987 26.8091V5.88383C3.3987 4.51335 4.51361 3.39844 5.88409 3.39844H7.29784C7.7485 3.39844 8.1807 3.21941 8.49937 2.90075C8.81803 2.58208 8.99706 2.14988 8.99706 1.69922C8.99706 1.24856 8.81803 0.816355 8.49937 0.49769C8.1807 0.179024 7.7485 0 7.29784 0L5.88409 0C2.63971 0 0.000259399 2.63945 0.000259399 5.88383V26.8091C0.000259399 30.0533 2.63971 32.6927 5.88409 32.6927Z" fill="black"/>
<path d="M9.95969 25.2581C10.3809 25.4184 10.8485 25.4049 11.2597 25.2206C11.6709 25.0362 11.9921 24.6961 12.1526 24.275L13.1055 21.7729H19.5968L20.5393 24.2701C20.6612 24.5932 20.8787 24.8715 21.1627 25.068C21.4467 25.2644 21.7839 25.3697 22.1293 25.3698C22.4041 25.3697 22.6749 25.303 22.9183 25.1753C23.1618 25.0476 23.3706 24.8628 23.5268 24.6367C23.6831 24.4105 23.7822 24.1499 23.8156 23.877C23.849 23.6042 23.8157 23.3273 23.7186 23.0702L18.2684 8.62863C18.1223 8.24421 17.8625 7.91341 17.5237 7.68029C17.1849 7.44716 16.7831 7.32275 16.3719 7.32363H16.3698C15.9596 7.32305 15.5589 7.44712 15.2209 7.6794C14.8828 7.91168 14.6232 8.24122 14.4767 8.62433L8.97664 23.0654C8.81625 23.4866 8.82972 23.9541 9.01407 24.3653C9.19843 24.7765 9.53858 25.0977 9.95969 25.2581ZM16.366 13.212L18.3142 18.3744H14.3999L16.366 13.212ZM38.3176 10.7221H50.6764C51.615 10.7221 52.3756 9.96127 52.3756 9.02285C52.3756 8.08443 51.615 7.32363 50.6764 7.32363H38.3176C37.867 7.32363 37.4347 7.50266 37.1161 7.82132C36.7974 8.13999 36.6184 8.57219 36.6184 9.02285C36.6184 9.47351 36.7974 9.90572 37.1161 10.2244C37.4347 10.543 37.867 10.7221 38.3176 10.7221ZM38.3176 18.0457H46.0991C47.0378 18.0457 47.7983 17.2849 47.7983 16.3465C47.7983 15.4081 47.0378 14.6473 46.0991 14.6473H38.3176C37.867 14.6473 37.4347 14.8263 37.1161 15.145C36.7974 15.4636 36.6184 15.8958 36.6184 16.3465C36.6184 16.7971 36.7974 17.2293 37.1161 17.548C37.4347 17.8667 37.867 18.0457 38.3176 18.0457ZM38.3176 25.3693H46.0991C47.0378 25.3693 47.7983 24.6085 47.7983 23.6701C47.7983 22.7317 47.0378 21.9709 46.0991 21.9709H38.3176C37.867 21.9709 37.4347 22.1499 37.1161 22.4686C36.7974 22.7873 36.6184 23.2195 36.6184 23.6701C36.6184 24.1208 36.7974 24.553 37.1161 24.8716C37.4347 25.1903 37.867 25.3693 38.3176 25.3693ZM38.3176 47.3402H50.6764C51.615 47.3402 52.3756 46.5794 52.3756 45.641C52.3756 44.7026 51.615 43.9418 50.6764 43.9418H38.3176C37.867 43.9418 37.4347 44.1208 37.1161 44.4395C36.7974 44.7582 36.6184 45.1904 36.6184 45.641C36.6184 46.0917 36.7974 46.5239 37.1161 46.8425C37.4347 47.1612 37.867 47.3402 38.3176 47.3402ZM38.3176 54.6639H46.0991C47.0378 54.6639 47.7983 53.9031 47.7983 52.9646C47.7983 52.0262 47.0378 51.2654 46.0991 51.2654H38.3176C37.867 51.2654 37.4347 51.4445 37.1161 51.7631C36.7974 52.0818 36.6184 52.514 36.6184 52.9646C36.6184 53.4153 36.7974 53.8475 37.1161 54.1662C37.4347 54.4848 37.867 54.6639 38.3176 54.6639ZM38.3176 61.9877H46.0991C47.0378 61.9877 47.7983 61.2269 47.7983 60.2885C47.7983 59.3501 47.0378 58.5893 46.0991 58.5893H38.3176C37.867 58.5893 37.4347 58.7683 37.1161 59.087C36.7974 59.4056 36.6184 59.8378 36.6184 60.2885C36.6184 60.7392 36.7974 61.1714 37.1161 61.49C37.4347 61.8087 37.867 61.9877 38.3176 61.9877ZM69.5087 32.693H90.4333C93.6779 32.693 96.3176 30.0533 96.3176 26.8087V5.88428C96.3174 2.63968 93.6779 0 90.4333 0H69.5087C66.2641 0 63.6244 2.63968 63.6244 5.88428V26.8089C63.6244 30.0533 66.2639 32.693 69.5087 32.693ZM67.0229 5.88428C67.0229 4.51358 68.138 3.39844 69.5087 3.39844H90.4333C91.804 3.39844 92.9192 4.51358 92.9192 5.88428V26.8089C92.9192 28.1796 91.804 29.2948 90.4333 29.2948H69.5087C68.138 29.2948 67.0229 28.1796 67.0229 26.8089V5.88428Z" fill="black"/>
<path d="M81.326 25.3693C83.3107 25.3693 85.0912 24.7177 86.4755 23.485C86.7498 23.2402 87.0059 22.9759 87.242 22.6941C87.5281 22.3483 87.6658 21.9034 87.6251 21.4564C87.5843 21.0094 87.3684 20.5967 87.0244 20.3084C86.6804 20.0201 86.2363 19.8796 85.7891 19.9176C85.3419 19.9556 84.9279 20.169 84.6374 20.5112C84.5075 20.6665 84.3664 20.8122 84.2153 20.9471C83.4525 21.6265 82.4805 21.9709 81.326 21.9709C78.2248 21.9709 75.7016 19.4477 75.7016 16.3465C75.7016 13.2453 78.2248 10.7221 81.326 10.7221C82.4463 10.7199 83.5414 11.0542 84.4695 11.6816C84.843 11.9321 85.3006 12.0244 85.7419 11.9381C86.1833 11.8519 86.5725 11.5942 86.8242 11.2216C87.076 10.8489 87.1697 10.3916 87.0849 9.94997C87.0001 9.50832 86.7436 9.1183 86.3717 8.86539C84.8821 7.8578 83.1243 7.32061 81.326 7.32341C76.3507 7.32341 72.3031 11.3712 72.3031 16.3463C72.3031 21.3213 76.3507 25.3693 81.326 25.3693ZM90.4324 36.6191H79.972C79.0334 36.6191 78.2728 37.3799 78.2728 38.3183C78.2728 39.2567 79.0334 40.0175 79.972 40.0175H90.4324C91.804 40.0175 92.9199 41.1324 92.9199 42.5029V63.4282C92.9199 64.7987 91.8038 65.9136 90.4324 65.9136H69.5094C68.1389 65.9136 67.024 64.7987 67.024 63.4282V42.5029C67.024 41.1324 68.1389 40.0175 69.5094 40.0175H72.0426C72.9812 40.0175 73.7418 39.2567 73.7418 38.3183C73.7418 37.3799 72.9812 36.6191 72.0426 36.6191H69.5094C66.2652 36.6191 63.6255 39.2585 63.6255 42.5029V63.4282C63.6255 66.6726 66.265 69.312 69.5094 69.312H90.4324C93.6779 69.312 96.3183 66.6726 96.3183 63.4282V42.5029C96.3183 39.2587 93.6779 36.6191 90.4324 36.6191Z" fill="black"/>
<path d="M73.24 60.0504C73.2551 60.5776 73.3766 61.1177 73.7719 61.4943C74.0901 61.8103 74.5204 61.9876 74.9689 61.9875H74.9752C75.1007 61.9871 78.0576 61.9755 79.2384 61.9551C83.563 61.8794 86.7016 58.0983 86.7016 52.9647C86.7016 47.5677 83.6417 43.9418 79.0875 43.9418H74.9392C74.7158 43.9419 74.4946 43.986 74.2883 44.0716C74.082 44.1573 73.8945 44.2827 73.7367 44.4408C73.5789 44.5989 73.4538 44.7866 73.3686 44.9931C73.2833 45.1995 73.2396 45.4208 73.24 45.6442V45.6562V60.0504ZM79.0878 47.3402C82.1962 47.3402 83.3034 50.2457 83.3034 52.9647C83.3034 55.7124 82.0281 58.5073 79.1793 58.5571C78.6036 58.5671 77.5648 58.5752 76.6624 58.5807C76.657 56.8484 76.649 54.2393 76.649 52.9486C76.649 51.8706 76.6445 49.1419 76.6416 47.3402H79.0878ZM101.942 10.7221H114.301C115.239 10.7221 116 9.96128 116 9.02286C116 8.08444 115.239 7.32364 114.301 7.32364H101.942C101.491 7.32364 101.059 7.50266 100.74 7.82133C100.422 8.13999 100.243 8.5722 100.243 9.02286C100.243 9.47352 100.422 9.90572 100.74 10.2244C101.059 10.5431 101.491 10.7221 101.942 10.7221ZM101.942 18.0457H109.723C110.662 18.0457 111.423 17.2849 111.423 16.3465C111.423 15.4081 110.662 14.6473 109.723 14.6473H101.942C101.491 14.6473 101.059 14.8263 100.74 15.145C100.422 15.4636 100.243 15.8958 100.243 16.3465C100.243 16.7972 100.422 17.2294 100.74 17.548C101.059 17.8667 101.491 18.0457 101.942 18.0457ZM101.942 25.3693H109.723C110.662 25.3693 111.423 24.6085 111.423 23.6701C111.423 22.7317 110.662 21.9709 109.723 21.9709H101.942C101.491 21.9709 101.059 22.1499 100.74 22.4686C100.422 22.7873 100.243 23.2195 100.243 23.6701C100.243 24.1208 100.422 24.553 100.74 24.8717C101.059 25.1903 101.491 25.3693 101.942 25.3693ZM114.301 43.9418H101.942C101.003 43.9418 100.243 44.7026 100.243 45.641C100.243 46.5794 101.003 47.3402 101.942 47.3402H114.301C115.239 47.3402 116 46.5794 116 45.641C116 44.7026 115.239 43.9418 114.301 43.9418ZM109.723 51.2654H101.942C101.003 51.2654 100.243 52.0262 100.243 52.9647C100.243 53.9031 101.003 54.6639 101.942 54.6639H109.723C110.662 54.6639 111.423 53.9031 111.423 52.9647C111.423 52.0262 110.662 51.2654 109.723 51.2654ZM109.723 58.5893H101.942C101.003 58.5893 100.243 59.3501 100.243 60.2885C100.243 61.2269 101.003 61.9877 101.942 61.9877H109.723C110.174 61.9877 110.606 61.8087 110.925 61.49C111.244 61.1714 111.423 60.7392 111.423 60.2885C111.423 59.3499 110.662 58.5893 109.723 58.5893ZM58.7694 80.9517L56.0663 72.2046C55.0635 68.9561 51.6254 67.0224 48.4033 67.8935C47.3219 68.1858 46.3628 68.744 45.5964 69.5135C44.3145 66.7138 41.2375 65.1927 38.2376 66.0038C37.1436 66.2994 36.1752 66.867 35.4045 67.6498C34.7879 66.4041 33.7816 65.3936 32.5385 64.772C32.6404 64.3354 32.693 63.8852 32.693 63.4278V42.5025C32.693 39.2581 30.0535 36.6186 26.8091 36.6186H5.88383C2.63968 36.6186 0 39.2581 0 42.5025V63.4278C0 66.6721 2.63945 69.3116 5.88383 69.3116H13.2913L16.8977 80.9861C15.9117 80.8101 14.8979 80.8734 13.9415 81.1708C11.2941 81.9891 9.51562 84.3988 9.51562 87.167C9.51562 87.7873 9.6101 88.4101 9.79747 89.0209L15.6525 107.975C16.3528 110.233 17.7342 112.162 19.6493 113.555L22.5742 115.676C22.8637 115.886 23.2124 116 23.5702 115.999C23.9294 116 24.2794 115.886 24.57 115.675C24.8607 115.464 25.077 115.167 25.1879 114.825C25.2989 114.483 25.2987 114.115 25.1875 113.774C25.0763 113.432 24.8597 113.135 24.5689 112.924L21.6462 110.805C20.3301 109.848 19.3802 108.521 18.8989 106.97L13.0455 88.0213C12.5624 86.5256 13.4363 84.8624 14.9445 84.4181C16.412 83.9312 18.1209 84.8307 18.5444 86.3183L21.7819 96.7977L20.7506 98.7511C20.6138 99.0099 20.5462 99.2997 20.5544 99.5924C20.5626 99.885 20.6462 100.171 20.7972 100.421C20.9482 100.672 21.1615 100.88 21.4163 101.024C21.6711 101.168 21.9589 101.244 22.2516 101.244C22.5611 101.244 22.8647 101.16 23.1299 101C23.395 100.841 23.6115 100.612 23.756 100.338L25.116 97.762C25.2202 97.5646 25.2845 97.3486 25.3052 97.1264C25.3259 96.9042 25.3027 96.6801 25.2368 96.4669L13.6857 59.0744C12.7283 55.3193 17.9299 53.7959 19.2159 57.4796L27.9666 85.8031C28.7127 87.9366 31.8046 86.9619 31.2137 84.7999L27.0253 71.2426C27.0239 71.2385 27.0221 71.2347 27.021 71.2306C26.9077 70.8627 26.8699 70.4756 26.91 70.0927C26.9501 69.7098 27.0672 69.339 27.2543 69.0026C27.4401 68.6631 27.6928 68.3649 27.9972 68.1261C28.3017 67.8873 28.6515 67.7128 29.0254 67.6133C30.5017 67.2157 32.0867 68.1287 32.5564 69.6517L36.7133 83.1009C37.4594 85.2344 40.5513 84.2597 39.9604 82.0976L37.1239 72.9133C37.0082 72.544 36.9688 72.1551 37.0081 71.7702C37.0474 71.3853 37.1646 71.0124 37.3525 70.6741C37.5383 70.3346 37.7913 70.0364 38.096 69.7976C38.4007 69.5588 38.7507 69.3844 39.1249 69.2851C40.6023 68.8866 42.1855 69.7996 42.6561 71.3198L45.4602 80.3987C46.093 82.5229 49.3861 81.4857 48.7073 79.3954L47.2829 74.7844C47.171 74.4175 47.1341 74.0317 47.1745 73.6502C47.2149 73.2687 47.3318 72.8993 47.5181 72.5639C47.704 72.2243 47.957 71.9261 48.2617 71.6872C48.5663 71.4484 48.9163 71.2739 49.2905 71.1744C50.7681 70.7743 52.3502 71.6871 52.8196 73.2076L55.5228 81.9551C55.5885 82.1684 55.6957 82.3666 55.8381 82.5385C55.9805 82.7103 56.1554 82.8524 56.3528 82.9565C56.5502 83.0607 56.7662 83.125 56.9884 83.1456C57.2106 83.1663 57.4347 83.1429 57.6479 83.0768C58.0784 82.9437 58.4384 82.6451 58.6488 82.2465C58.8591 81.848 58.9025 81.3822 58.7694 80.9517ZM16.1312 50.6827C15.8265 50.6827 15.2599 50.6843 14.6373 50.6866H13.5759V47.3402H16.1312C17.0527 47.3402 17.8024 48.0899 17.8024 49.0114C17.8024 49.933 17.0527 50.6827 16.1312 50.6827ZM25.3764 65.9088L22.5072 56.6196L22.5085 56.606C22.5133 56.5138 22.5158 56.4209 22.5158 56.3275C22.5158 54.513 21.6539 52.8971 20.319 51.8645C20.8945 51.0243 21.2019 50.0295 21.2008 49.0111C21.2008 46.2158 18.9266 43.9416 16.1312 43.9416H11.8766C11.426 43.9416 10.9938 44.1206 10.6751 44.4393C10.3564 44.7579 10.1774 45.1901 10.1774 45.6408V60.2878C10.1775 60.5692 10.2474 60.8461 10.3809 61.0938C10.5144 61.3414 10.7073 61.5521 10.9423 61.7068L12.2419 65.9134H5.88405C4.51358 65.9134 3.39866 64.7985 3.39866 63.428V42.5027C3.39866 41.1322 4.51358 40.0173 5.88405 40.0173H26.8094C28.1798 40.0173 29.2948 41.1322 29.2948 42.5027V63.428C29.2948 63.6736 29.2581 63.9137 29.1892 64.1435C28.8348 64.1764 28.4839 64.2395 28.1402 64.332C27.0788 64.6188 26.1356 65.1619 25.3764 65.9088ZM64.1122 105.994L63.6684 97.909C63.6205 97.0227 63.4635 96.1457 63.201 95.2979L61.1098 88.5282C60.9768 88.0976 60.6781 87.7375 60.2796 87.5271C59.881 87.3167 59.4152 87.2732 58.9846 87.4062C58.5541 87.5393 58.1939 87.8379 57.9835 88.2364C57.7731 88.635 57.7297 89.1008 57.8627 89.5314L59.9548 96.3038C60.1349 96.8853 60.2425 97.4869 60.2751 98.0948L60.7305 106.389C60.7381 106.528 60.7626 106.665 60.8035 106.797L63.2753 114.802C63.3409 115.015 63.4479 115.214 63.5903 115.386C63.7326 115.558 63.9075 115.7 64.1049 115.804C64.3023 115.908 64.5183 115.972 64.7406 115.993C64.9629 116.014 65.187 115.99 65.4002 115.924C65.6134 115.858 65.8116 115.751 65.9834 115.609C66.1552 115.466 66.2973 115.291 66.4015 115.094C66.5057 114.897 66.57 114.681 66.5907 114.459C66.6115 114.236 66.5882 114.012 66.5224 113.799L64.1122 105.994Z" fill="black"/>
</g>
<defs>
<clipPath id="clip0_1_2">
<rect width="116" height="116" fill="white"/>
</clipPath>
</defs>
</svg>
