<svg width="107" height="107" viewBox="0 0 107 107" fill="none" xmlns="http://www.w3.org/2000/svg">
<g clip-path="url(#clip0_1_239)">
<path fill-rule="evenodd" clip-rule="evenodd" d="M97.5975 85.6878H93.2097C90.0756 85.6878 90.0756 80.8612 93.2097 80.8612H97.5975C96.5319 72.3363 89.6995 65.5665 81.1746 64.5009V68.8887C81.1746 72.0229 76.4107 72.0229 76.4107 68.8887V64.5009C67.8858 65.5665 61.116 72.3363 60.0504 80.8612H64.3755C67.5723 80.8612 67.5723 85.6878 64.3755 85.6878H60.0504C61.116 94.2127 67.8858 100.982 76.4107 102.048V97.6602C76.4107 94.5261 81.1746 94.5261 81.1746 97.6602V102.048C89.6995 100.982 96.5319 94.2127 97.5975 85.6878ZM56.9162 92.3949H16.1095C9.65319 92.3949 4.4505 87.1295 4.4505 80.7358V20.9988C4.4505 14.6052 9.71587 9.33978 16.1095 9.33978H21.1869V6.26831C21.1869 2.82074 24.0076 0 27.5179 0C30.9654 0 33.7235 2.82074 33.7235 6.26831V9.33978H58.1699V6.26831C58.1699 2.82074 60.9906 0 64.4382 0C67.9484 0 70.7065 2.82074 70.7065 6.26831V9.33978H75.7838C82.2402 9.33978 87.5056 14.6052 87.5056 20.9988V61.1787C96.2812 64.6263 102.612 73.3392 102.549 83.3058C102.424 96.5319 91.7053 107.063 78.7299 107C68.9514 106.937 60.4892 100.92 56.9162 92.3949ZM21.1869 14.1664H16.1095C12.3486 14.1664 9.21441 17.2378 9.21441 20.9988V28.3954H82.679V20.9988C82.679 17.2378 79.6075 14.1664 75.7838 14.1664H70.7065V17.2378C70.7065 20.6854 67.9484 23.5062 64.4382 23.5062C60.9906 23.5062 58.1699 20.6854 58.1699 17.2378V14.1664H33.7235V17.2378C33.7235 20.6854 30.9028 23.5062 27.4552 23.5062C24.0076 23.5062 21.1869 20.6854 21.1869 17.2378V14.1664ZM9.21441 33.222V80.7358C9.21441 84.4968 12.3486 87.5683 16.1095 87.5683H55.4745C52.5284 71.4587 66.4441 57.167 82.679 59.8623V33.222H9.21441ZM62.9965 17.2378C62.9965 19.181 65.9426 19.181 65.9426 17.2378V6.26831C65.9426 4.32513 62.9965 4.32513 62.9965 6.26831V17.2378ZM27.4552 4.76391C26.6403 4.76391 26.0135 5.45343 26.0135 6.26831V17.2378C26.0135 19.181 28.9596 19.181 28.9596 17.2378V6.26831C28.9596 5.45343 28.2701 4.76391 27.4552 4.76391ZM41.8723 49.9584H32.5952C31.2788 49.9584 30.2132 48.8928 30.2132 47.5765V38.2994C30.2132 36.983 31.2788 35.9174 32.5952 35.9174H41.8723C43.1886 35.9174 44.2542 36.983 44.2542 38.2994V47.5765C44.2542 48.8928 43.1886 49.9584 41.8723 49.9584ZM34.9772 45.1945H39.4903V40.6813H34.9772V45.1945ZM59.2982 49.9584H50.0211C48.7047 49.9584 47.6391 48.8928 47.6391 47.5765V38.2994C47.6391 36.983 48.7047 35.9174 50.0211 35.9174H59.2982C60.6145 35.9174 61.6801 36.983 61.6801 38.2994V47.5765C61.6801 48.8928 60.6145 49.9584 59.2982 49.9584ZM52.4657 45.1945H56.9162V40.6813H52.4657V45.1945ZM76.7241 49.9584H67.5097C66.1306 49.9584 65.065 48.8928 65.065 47.5765V38.2994C65.065 36.983 66.1306 35.9174 67.5097 35.9174H76.7241C78.1031 35.9174 79.1687 36.983 79.1687 38.2994V47.5765C79.1687 48.8928 78.1031 49.9584 76.7241 49.9584ZM69.8916 45.1945H74.3421V40.6813H69.8916V45.1945ZM24.4464 67.447H15.1693C13.853 67.447 12.7873 66.3814 12.7873 65.0023V55.7879C12.7873 54.4089 13.853 53.3433 15.1693 53.3433H24.4464C25.7627 53.3433 26.8284 54.4089 26.8284 55.7879V65.0023C26.8284 66.3814 25.7627 67.447 24.4464 67.447ZM17.5513 62.6204H22.0644V58.1699H17.5513V62.6204ZM41.8723 67.447H32.5952C31.2788 67.447 30.2132 66.3814 30.2132 65.0023V55.7879C30.2132 54.4089 31.2788 53.3433 32.5952 53.3433H41.8723C43.1886 53.3433 44.2542 54.4089 44.2542 55.7879V65.0023C44.2542 66.3814 43.1886 67.447 41.8723 67.447ZM34.9772 62.6204H39.4903V58.1699H34.9772V62.6204ZM59.2982 67.447H50.0211C48.7047 67.447 47.6391 66.3814 47.6391 65.0023V55.7879C47.6391 54.4089 48.7047 53.3433 50.0211 53.3433H59.2982C60.6145 53.3433 61.6801 54.4089 61.6801 55.7879V65.0023C61.6801 66.3814 60.6145 67.447 59.2982 67.447ZM52.4657 62.6204H56.9162V58.1699H52.4657V62.6204ZM24.4464 84.8729H15.1693C13.853 84.8729 12.7873 83.8073 12.7873 82.4909V73.2138C12.7873 71.8975 13.853 70.8319 15.1693 70.8319H24.4464C25.7627 70.8319 26.8284 71.8975 26.8284 73.2138V82.4909C26.8284 83.8073 25.7627 84.8729 24.4464 84.8729ZM17.5513 80.109H22.0644V75.5958H17.5513V80.109ZM41.8723 84.8729H32.5952C31.2788 84.8729 30.2132 83.8073 30.2132 82.4909V73.2138C30.2132 71.8975 31.2788 70.8319 32.5952 70.8319H41.8723C43.1886 70.8319 44.2542 71.8975 44.2542 73.2138V82.4909C44.2542 83.8073 43.1886 84.8729 41.8723 84.8729ZM34.9772 80.109H39.4903V75.5958H34.9772V80.109ZM78.6672 85.6878C77.3509 85.6878 76.2853 84.6222 76.2853 83.2431V74.9063C76.2853 71.7721 81.0492 71.7721 81.0492 74.9063V79.106L81.8014 78.6673C84.5595 77.1002 86.9414 81.2373 84.246 82.8043C82.8043 83.6192 79.7955 85.6878 78.6672 85.6878Z" fill="#000002"/>
<path fill-rule="evenodd" clip-rule="evenodd" d="M39.4903 45.1945V40.6813H34.9772V45.1945H39.4903ZM52.4657 40.6813V45.1945H56.9162V40.6813H52.4657ZM69.8916 40.6813V45.1945H74.3421V40.6813H69.8916ZM56.9162 62.6204V58.1699H52.4657V62.6204H56.9162ZM39.4903 62.6204V58.1699H34.9772V62.6204H39.4903ZM22.0644 62.6204V58.1699H17.5513V62.6204H22.0644ZM22.0644 75.5958H17.5513V80.109H22.0644V75.5958ZM34.9772 75.5958V80.109H39.4903V75.5958H34.9772Z" fill="#00CCFF"/>
<path fill-rule="evenodd" clip-rule="evenodd" d="M76.4107 64.5009C67.8858 65.5665 61.116 72.3363 60.0504 80.8612H64.3755C67.5724 80.8612 67.5724 85.6878 64.3755 85.6878H60.0504C61.116 94.2127 67.8858 100.982 76.4107 102.048V97.6602C76.4107 94.5261 81.1746 94.5261 81.1746 97.6602V102.048C89.6995 100.982 96.5319 94.2127 97.5975 85.6878H93.2097C90.0756 85.6878 90.0756 80.8612 93.2097 80.8612H97.5975C96.5319 72.3363 89.6995 65.5665 81.1746 64.5009V68.8887C81.1746 72.0229 76.4107 72.0229 76.4107 68.8887V64.5009ZM76.2853 83.2431V74.9063C76.2853 71.7721 81.0492 71.7721 81.0492 74.9063V79.106L81.8014 78.6673C84.5595 77.1002 86.9414 81.2373 84.2461 82.8043C82.8043 83.6192 79.7956 85.6878 78.6673 85.6878C77.3509 85.6878 76.2853 84.6222 76.2853 83.2431Z" fill="#7DD63E"/>
<path fill-rule="evenodd" clip-rule="evenodd" d="M55.4745 87.5683C52.5284 71.4587 66.4441 57.167 82.679 59.8623V33.222H9.21441V80.7358C9.21441 84.4968 12.3486 87.5683 16.1095 87.5683H55.4745ZM44.2542 55.7879V65.0024C44.2542 66.3814 43.1886 67.447 41.8723 67.447H32.5952C31.2789 67.447 30.2132 66.3814 30.2132 65.0024V55.7879C30.2132 54.4089 31.2789 53.3433 32.5952 53.3433H41.8723C43.1886 53.3433 44.2542 54.4089 44.2542 55.7879ZM41.8723 49.9584H32.5952C31.2789 49.9584 30.2132 48.8928 30.2132 47.5765V38.2994C30.2132 36.983 31.2789 35.9174 32.5952 35.9174H41.8723C43.1886 35.9174 44.2542 36.983 44.2542 38.2994V47.5765C44.2542 48.8928 43.1886 49.9584 41.8723 49.9584ZM59.2982 67.447H50.0211C48.7047 67.447 47.6391 66.3814 47.6391 65.0024V55.7879C47.6391 54.4089 48.7047 53.3433 50.0211 53.3433H59.2982C60.6145 53.3433 61.6801 54.4089 61.6801 55.7879V65.0024C61.6801 66.3814 60.6145 67.447 59.2982 67.447ZM59.2982 49.9584H50.0211C48.7047 49.9584 47.6391 48.8928 47.6391 47.5765V38.2994C47.6391 36.983 48.7047 35.9174 50.0211 35.9174H59.2982C60.6145 35.9174 61.6801 36.983 61.6801 38.2994V47.5765C61.6801 48.8928 60.6145 49.9584 59.2982 49.9584ZM76.7241 49.9584H67.5097C66.1306 49.9584 65.065 48.8928 65.065 47.5765V38.2994C65.065 36.983 66.1306 35.9174 67.5097 35.9174H76.7241C78.1031 35.9174 79.1687 36.983 79.1687 38.2994V47.5765C79.1687 48.8928 78.1031 49.9584 76.7241 49.9584ZM41.8723 70.8319C43.1886 70.8319 44.2542 71.8975 44.2542 73.2138V82.4909C44.2542 83.8073 43.1886 84.8729 41.8723 84.8729H32.5952C31.2789 84.8729 30.2132 83.8073 30.2132 82.4909V73.2138C30.2132 71.8975 31.2789 70.8319 32.5952 70.8319H41.8723ZM24.4464 67.447H15.1693C13.853 67.447 12.7873 66.3814 12.7873 65.0024V55.7879C12.7873 54.4089 13.853 53.3433 15.1693 53.3433H24.4464C25.7627 53.3433 26.8284 54.4089 26.8284 55.7879V65.0024C26.8284 66.3814 25.7627 67.447 24.4464 67.447ZM24.4464 70.8319C25.7627 70.8319 26.8284 71.8975 26.8284 73.2138V82.4909C26.8284 83.8073 25.7627 84.8729 24.4464 84.8729H15.1693C13.853 84.8729 12.7873 83.8073 12.7873 82.4909V73.2138C12.7873 71.8975 13.853 70.8319 15.1693 70.8319H24.4464Z" fill="#F3F3F3"/>
<path fill-rule="evenodd" clip-rule="evenodd" d="M28.9596 17.2378V6.26831C28.9596 5.45343 28.2701 4.76392 27.4552 4.76392C26.6403 4.76392 26.0135 5.45343 26.0135 6.26831V17.2378C26.0135 19.181 28.9596 19.181 28.9596 17.2378ZM62.9965 6.26831V17.2378C62.9965 19.181 65.9426 19.181 65.9426 17.2378V6.26831C65.9426 4.32513 62.9965 4.32513 62.9965 6.26831Z" fill="#99471C"/>
<path fill-rule="evenodd" clip-rule="evenodd" d="M58.1699 17.2378V14.1664H33.7235V17.2378C33.7235 20.6854 30.9028 23.5061 27.4552 23.5061C24.0076 23.5061 21.1869 20.6854 21.1869 17.2378V14.1664H16.1095C12.3486 14.1664 9.21441 17.2378 9.21441 20.9988V28.3954H82.679V20.9988C82.679 17.2378 79.6075 14.1664 75.7838 14.1664H70.7065V17.2378C70.7065 20.6854 67.9485 23.5061 64.4382 23.5061C60.9906 23.5061 58.1699 20.6854 58.1699 17.2378Z" fill="#FF2C00"/>
</g>
<defs>
<clipPath id="clip0_1_239">
<rect width="107" height="107" fill="white"/>
</clipPath>
</defs>
</svg>
